<?xml version="1.0" standalone="no"?><svg xmlns:xlink="http://www.w3.org/1999/xlink" xmlns="http://www.w3.org/2000/svg" viewBox="0 0 1000 444.43514115546844" preserveAspectRatio="xMaxYMax slice"><g transform="scale(1.5798037883694844)"><rect x="0" y="0" width="632.99925" height="281.33299999999997" fill="#ffffff"/><rect x="0" y="0" width="70.33" height="70.33" fill="#bdc1ff"/><path d="M 0 70.33 A 70.33 70.33 0 0 1  70.33 0 L 0 70.33 A 70.33 70.33 0 0 0 70.33 0" fill="#4754ff"/><rect x="70.33" y="0" width="70.33" height="70.33" fill="#e3a9fb"/><path d="M 70.33 0 A 70.33 70.33 0 0 1  140.66 70.33 L 70.33 0 A 70.33 70.33 0 0 0 140.66 70.33" fill="#99a0ff"/><rect x="140.66649999999998" y="0" width="70.33324999999999" height="70.33324999999999" fill="#ffffff"/><rect x="140.67" y="0" width="35.17" height="35.17" fill="#c550f7"/><path d="M 140.67 35.17 A 35.17 35.17 0 0 1  175.83999999999997 0 L 140.67 35.17 A 35.17 35.17 0 0 0 175.83999999999997 0" fill="#e9befc"/><rect x="175.83" y="0" width="35.17" height="35.17" fill="#949bff"/><path d="M 175.83 35.17 A 35.17 35.17 0 0 1  211 0 L 211 35.17L175.83 35.17" fill="#a6acff"/><rect x="140.67" y="35.17" width="35.17" height="35.17" fill="#3543ff"/><path d="M 140.67 70.34 A 35.17 35.17 0 0 0 175.83999999999997 35.17 L 140.67 35.17L140.67 70.34" fill="#eac1fc"/><rect x="175.83" y="35.17" width="35.17" height="35.17" fill="#ebc3fc"/><path d="M 175.83 70.34 A 35.17 35.17 0 0 1  211 35.17 L 211 70.34L175.83 70.34" fill="#b9beff"/><rect x="210.99974999999998" y="0" width="70.33324999999999" height="70.33324999999999" fill="#ffffff"/><rect x="211" y="0" width="35.17" height="35.17" fill="#e1a4fb"/><path d="M 211 35.17 A 35.17 35.17 0 0 1  246.17000000000002 0 L 246.17000000000002 35.17L211 35.17" fill="#535eff"/><rect x="246.17" y="0" width="35.17" height="35.17" fill="#fefbff"/><path d="M 246.17 0 A 35.17 35.17 0 0 1 281.34 35.17 L 246.17 35.17L246.17 0" fill="#f9faff"/><rect x="211" y="35.17" width="35.17" height="35.17" fill="#f4defd"/><path d="M 211 70.34 A 35.17 35.17 0 0 1  246.17000000000002 35.17 L 211 70.34 A 35.17 35.17 0 0 0 246.17000000000002 35.17" fill="#b2b7ff"/><rect x="246.17" y="35.17" width="35.17" height="35.17" fill="#e6b4fb"/><path d="M 246.17 70.34 A 35.17 35.17 0 0 1  281.34 35.17 L 281.34 70.34L246.17 70.34" fill="#db94fa"/><rect x="281.33299999999997" y="0" width="70.33324999999999" height="70.33324999999999" fill="#ffffff"/><rect x="281.33" y="0" width="35.17" height="35.17" fill="#dbddff"/><path d="M 281.33 35.17 A 35.17 35.17 0 0 1  316.5 0 L 281.33 35.17 A 35.17 35.17 0 0 0 316.5 0" fill="#d3d6ff"/><rect x="316.5" y="0" width="35.17" height="35.17" fill="#fefcff"/><path d="M 316.5 35.17 A 35.17 35.17 0 0 1  351.67 0 L 316.5 35.17 A 35.17 35.17 0 0 0 351.67 0" fill="#f5e2fe"/><rect x="281.33" y="35.17" width="35.17" height="35.17" fill="#c041f6"/><path d="M 281.33 35.17 A 35.17 35.17 0 0 0 316.5 70.34 L 316.5 35.17L281.33 35.17" fill="#e7b7fc"/><rect x="316.5" y="35.17" width="35.17" height="35.17" fill="#f0f1ff"/><path d="M 316.5 70.34 A 35.17 35.17 0 0 1  351.67 35.17 L 316.5 70.34 A 35.17 35.17 0 0 0 351.67 35.17" fill="#bcc1ff"/><rect x="351.67" y="0" width="70.33" height="70.33" fill="#cd6af8"/><path d="M 351.67 0 A 70.33 70.33 0 0 1  422 70.33 L 351.67 0 A 70.33 70.33 0 0 0 422 70.33" fill="#eabffc"/><rect x="422" y="0" width="70.33" height="70.33" fill="#e6e8ff"/><path d="M 422 0 A 70.33 70.33 0 0 1 492.33 70.33 L 422 70.33L422 0" fill="#d88af9"/><rect x="492.3327499999999" y="0" width="70.33324999999999" height="70.33324999999999" fill="#ffffff"/><rect x="492.33" y="0" width="35.17" height="35.17" fill="#525eff"/><path d="M 492.33 35.17 A 35.17 35.17 0 0 1  527.5 0 L 492.33 35.17 A 35.17 35.17 0 0 0 527.5 0" fill="#dd9afa"/><rect x="527.5" y="0" width="35.17" height="35.17" fill="#4c59ff"/><path d="M 527.5 35.17 A 35.17 35.17 0 0 1  562.67 0 L 562.67 35.17L527.5 35.17" fill="#d57ff9"/><rect x="492.33" y="35.17" width="35.17" height="35.17" fill="#9098ff"/><path d="M 492.33 70.34 A 35.17 35.17 0 0 0 527.5 35.17 L 492.33 35.17L492.33 70.34" fill="#5d69ff"/><rect x="527.5" y="35.17" width="35.17" height="35.17" fill="#cd67f8"/><path d="M 527.5 35.17 A 35.17 35.17 0 0 1  562.67 70.34 L 527.5 35.17 A 35.17 35.17 0 0 0 562.67 70.34" fill="#c756f7"/><rect x="562.6659999999999" y="0" width="70.33324999999999" height="70.33324999999999" fill="#ffffff"/><rect x="562.67" y="0" width="35.17" height="35.17" fill="#b2b8ff"/><path d="M 562.67 35.17 A 35.17 35.17 0 0 0 597.8399999999999 0 L 562.67 0L562.67 35.17" fill="#c4c8ff"/><rect x="597.83" y="0" width="35.17" height="35.17" fill="#c3c7ff"/><path d="M 597.83 0 A 35.17 35.17 0 0 0 633 35.17 L 633 0L597.83 0" fill="#9aa1ff"/><rect x="562.67" y="35.17" width="35.17" height="35.17" fill="#4854ff"/><path d="M 562.67 70.34 A 35.17 35.17 0 0 0 597.8399999999999 35.17 L 562.67 35.17L562.67 70.34" fill="#cf6ff8"/><rect x="597.83" y="35.17" width="35.17" height="35.17" fill="#ce6cf8"/><path d="M 597.83 35.17 A 35.17 35.17 0 0 1  633 70.34 L 597.83 35.17 A 35.17 35.17 0 0 0 633 70.34" fill="#d889f9"/><rect x="0" y="70.33" width="70.33" height="70.33" fill="#f4dffd"/><path d="M 0 140.66 A 70.33 70.33 0 0 0 70.33 70.33 L 0 70.33L0 140.66" fill="#cb61f7"/><rect x="70.33" y="70.33" width="70.33" height="70.33" fill="#f8ebfe"/><path d="M 70.33 70.33 A 70.33 70.33 0 0 1  140.66 140.66 L 70.33 70.33 A 70.33 70.33 0 0 0 140.66 140.66" fill="#a3aaff"/><rect x="140.67" y="70.33" width="70.33" height="70.33" fill="#eac0fc"/><path d="M 140.67 140.66 A 70.33 70.33 0 0 1  211 70.33 L 140.67 140.66 A 70.33 70.33 0 0 0 211 70.33" fill="#c040f6"/><rect x="211" y="70.33" width="70.33" height="70.33" fill="#adb3ff"/><path d="M 211 70.33 A 70.33 70.33 0 0 1  281.33 140.66 L 211 70.33 A 70.33 70.33 0 0 0 281.33 140.66" fill="#818aff"/><rect x="281.33" y="70.33" width="70.33" height="70.33" fill="#414fff"/><path d="M 281.33 140.66 A 70.33 70.33 0 0 0 351.65999999999997 70.33 L 281.33 70.33L281.33 140.66" fill="#c4c8ff"/><rect x="351.67" y="70.33" width="70.33" height="70.33" fill="#fdfdff"/><path d="M 351.67 70.33 A 70.33 70.33 0 0 0 422 140.66 L 422 70.33L351.67 70.33" fill="#b5baff"/><rect x="421.99949999999995" y="70.33324999999999" width="70.33324999999999" height="70.33324999999999" fill="#ffffff"/><rect x="422" y="70.33" width="35.17" height="35.17" fill="#edc8fc"/><path d="M 422 70.33 A 35.17 35.17 0 0 0 457.17 105.5 L 457.17 70.33L422 70.33" fill="#c248f6"/><rect x="457.17" y="70.33" width="35.17" height="35.17" fill="#c5c9ff"/><path d="M 457.17 70.33 A 35.17 35.17 0 0 0 492.34000000000003 105.5 L 492.34000000000003 70.33L457.17 70.33" fill="#e2e4ff"/><rect x="422" y="105.5" width="35.17" height="35.17" fill="#8c94ff"/><path d="M 422 105.5 A 35.17 35.17 0 0 1 457.17 140.67000000000002 L 422 140.67000000000002L422 105.5" fill="#c247f6"/><rect x="457.17" y="105.5" width="35.17" height="35.17" fill="#c144f6"/><path d="M 457.17 105.5 A 35.17 35.17 0 0 1  492.34000000000003 140.67000000000002 L 457.17 105.5 A 35.17 35.17 0 0 0 492.34000000000003 140.67000000000002" fill="#c042f6"/><rect x="492.33" y="70.33" width="70.33" height="70.33" fill="#989fff"/><path d="M 492.33 70.33 A 70.33 70.33 0 0 0 562.66 140.66 L 562.66 70.33L492.33 70.33" fill="#838bff"/><rect x="562.67" y="70.33" width="70.33" height="70.33" fill="#f7e7fe"/><path d="M 562.67 70.33 A 70.33 70.33 0 0 1  633 140.66 L 562.67 70.33 A 70.33 70.33 0 0 0 633 140.66" fill="#c758f7"/><rect x="0" y="140.66649999999998" width="70.33324999999999" height="70.33324999999999" fill="#ffffff"/><rect x="0" y="140.67" width="35.17" height="35.17" fill="#eaecff"/><path d="M 0 175.83999999999997 A 35.17 35.17 0 0 1  35.17 140.67 L 35.17 175.83999999999997L0 175.83999999999997" fill="#dee0ff"/><rect x="35.17" y="140.67" width="35.17" height="35.17" fill="#6b75ff"/><path d="M 35.17 175.83999999999997 A 35.17 35.17 0 0 1  70.34 140.67 L 35.17 175.83999999999997 A 35.17 35.17 0 0 0 70.34 140.67" fill="#d4d7ff"/><rect x="0" y="175.83" width="35.17" height="35.17" fill="#eff0ff"/><path d="M 0 211 A 35.17 35.17 0 0 1  35.17 175.83 L 35.17 211L0 211" fill="#ebc3fc"/><rect x="35.17" y="175.83" width="35.17" height="35.17" fill="#b9beff"/><path d="M 35.17 175.83 A 35.17 35.17 0 0 1 70.34 211 L 35.17 211L35.17 175.83" fill="#b7bcff"/><rect x="70.33324999999999" y="140.66649999999998" width="70.33324999999999" height="70.33324999999999" fill="#ffffff"/><rect x="70.33" y="140.67" width="35.17" height="35.17" fill="#f5f6ff"/><path d="M 70.33 175.83999999999997 A 35.17 35.17 0 0 1  105.5 140.67 L 70.33 175.83999999999997 A 35.17 35.17 0 0 0 105.5 140.67" fill="#d7daff"/><rect x="105.5" y="140.67" width="35.17" height="35.17" fill="#f1d6fd"/><path d="M 105.5 175.83999999999997 A 35.17 35.17 0 0 1  140.67000000000002 140.67 L 140.67000000000002 175.83999999999997L105.5 175.83999999999997" fill="#d98cf9"/><rect x="70.33" y="175.83" width="35.17" height="35.17" fill="#e4affb"/><path d="M 70.33 211 A 35.17 35.17 0 0 1  105.5 175.83 L 105.5 211L70.33 211" fill="#de9cfa"/><rect x="105.5" y="175.83" width="35.17" height="35.17" fill="#dd99fa"/><path d="M 105.5 211 A 35.17 35.17 0 0 1  140.67000000000002 175.83 L 105.5 211 A 35.17 35.17 0 0 0 140.67000000000002 175.83" fill="#c1c5ff"/><rect x="140.66649999999998" y="140.66649999999998" width="70.33324999999999" height="70.33324999999999" fill="#ffffff"/><rect x="140.67" y="140.67" width="35.17" height="35.17" fill="#b41df4"/><path d="M 140.67 175.83999999999997 A 35.17 35.17 0 0 1  175.83999999999997 140.67 L 175.83999999999997 175.83999999999997L140.67 175.83999999999997" fill="#f0d3fd"/><rect x="175.83" y="140.67" width="35.17" height="35.17" fill="#f1d4fd"/><path d="M 175.83 175.83999999999997 A 35.17 35.17 0 0 1  211 140.67 L 211 175.83999999999997L175.83 175.83999999999997" fill="#8d95ff"/><rect x="140.67" y="175.83" width="35.17" height="35.17" fill="#5e69ff"/><path d="M 140.67 175.83 A 35.17 35.17 0 0 1 175.83999999999997 211 L 140.67 211L140.67 175.83" fill="#d580f9"/><rect x="175.83" y="175.83" width="35.17" height="35.17" fill="#3442ff"/><path d="M 175.83 175.83 A 35.17 35.17 0 0 1  211 211 L 175.83 175.83 A 35.17 35.17 0 0 0 211 211" fill="#d98dfa"/><rect x="210.99974999999998" y="140.66649999999998" width="70.33324999999999" height="70.33324999999999" fill="#ffffff"/><rect x="211" y="140.67" width="35.17" height="35.17" fill="#d072f8"/><path d="M 211 175.83999999999997 A 35.17 35.17 0 0 1  246.17000000000002 140.67 L 246.17000000000002 175.83999999999997L211 175.83999999999997" fill="#3644ff"/><rect x="246.17" y="140.67" width="35.17" height="35.17" fill="#c95df7"/><path d="M 246.17 140.67 A 35.17 35.17 0 0 1 281.34 175.83999999999997 L 246.17 175.83999999999997L246.17 140.67" fill="#8a92ff"/><rect x="211" y="175.83" width="35.17" height="35.17" fill="#505cff"/><path d="M 211 175.83 A 35.17 35.17 0 0 1  246.17000000000002 211 L 211 175.83 A 35.17 35.17 0 0 0 246.17000000000002 211" fill="#a4aaff"/><rect x="246.17" y="175.83" width="35.17" height="35.17" fill="#6772ff"/><path d="M 246.17 211 A 35.17 35.17 0 0 1  281.34 175.83 L 246.17 211 A 35.17 35.17 0 0 0 281.34 175.83" fill="#cd6af8"/><rect x="281.33" y="140.67" width="70.33" height="70.33" fill="#c95cf7"/><path d="M 281.33 140.67 A 70.33 70.33 0 0 1 351.65999999999997 211 L 281.33 211L281.33 140.67" fill="#3845ff"/><rect x="351.67" y="140.67" width="70.33" height="70.33" fill="#5e69ff"/><path d="M 351.67 140.67 A 70.33 70.33 0 0 0 422 211 L 422 140.67L351.67 140.67" fill="#b624f4"/><rect x="421.99949999999995" y="140.66649999999998" width="70.33324999999999" height="70.33324999999999" fill="#ffffff"/><rect x="422" y="140.67" width="35.17" height="35.17" fill="#e8bafc"/><path d="M 422 175.83999999999997 A 35.17 35.17 0 0 1  457.17 140.67 L 422 175.83999999999997 A 35.17 35.17 0 0 0 457.17 140.67" fill="#d88bf9"/><rect x="457.17" y="140.67" width="35.17" height="35.17" fill="#fdfaff"/><path d="M 457.17 175.83999999999997 A 35.17 35.17 0 0 1  492.34000000000003 140.67 L 492.34000000000003 175.83999999999997L457.17 175.83999999999997" fill="#6a74ff"/><rect x="422" y="175.83" width="35.17" height="35.17" fill="#8991ff"/><path d="M 422 175.83 A 35.17 35.17 0 0 0 457.17 211 L 457.17 175.83L422 175.83" fill="#e9ebff"/><rect x="457.17" y="175.83" width="35.17" height="35.17" fill="#c247f6"/><path d="M 457.17 211 A 35.17 35.17 0 0 1  492.34000000000003 175.83 L 492.34000000000003 211L457.17 211" fill="#ebc3fc"/><rect x="492.3327499999999" y="140.66649999999998" width="70.33324999999999" height="70.33324999999999" fill="#ffffff"/><rect x="492.33" y="140.67" width="35.17" height="35.17" fill="#8b93ff"/><path d="M 492.33 140.67 A 35.17 35.17 0 0 0 527.5 175.83999999999997 L 527.5 140.67L492.33 140.67" fill="#868eff"/><rect x="527.5" y="140.67" width="35.17" height="35.17" fill="#a7adff"/><path d="M 527.5 140.67 A 35.17 35.17 0 0 1  562.67 175.83999999999997 L 527.5 140.67 A 35.17 35.17 0 0 0 562.67 175.83999999999997" fill="#e9bdfc"/><rect x="492.33" y="175.83" width="35.17" height="35.17" fill="#fdfaff"/><path d="M 492.33 175.83 A 35.17 35.17 0 0 1  527.5 211 L 492.33 175.83 A 35.17 35.17 0 0 0 527.5 211" fill="#babfff"/><rect x="527.5" y="175.83" width="35.17" height="35.17" fill="#b727f5"/><path d="M 527.5 211 A 35.17 35.17 0 0 1  562.67 175.83 L 562.67 211L527.5 211" fill="#ced1ff"/><rect x="562.67" y="140.67" width="70.33" height="70.33" fill="#3442ff"/><path d="M 562.67 140.67 A 70.33 70.33 0 0 0 633 211 L 633 140.67L562.67 140.67" fill="#c9cdff"/><rect x="0" y="210.99974999999998" width="70.33324999999999" height="70.33324999999999" fill="#ffffff"/><rect x="0" y="211" width="35.17" height="35.17" fill="#6c76ff"/><path d="M 0 246.17000000000002 A 35.17 35.17 0 0 1  35.17 211 L 35.17 246.17000000000002L0 246.17000000000002" fill="#eac0fc"/><rect x="35.17" y="211" width="35.17" height="35.17" fill="#faf0fe"/><path d="M 35.17 211 A 35.17 35.17 0 0 1  70.34 246.17000000000002 L 35.17 211 A 35.17 35.17 0 0 0 70.34 246.17000000000002" fill="#f0d3fd"/><rect x="0" y="246.17" width="35.17" height="35.17" fill="#dd98fa"/><path d="M 0 246.17 A 35.17 35.17 0 0 1 35.17 281.34 L 0 281.34L0 246.17" fill="#d787f9"/><rect x="35.17" y="246.17" width="35.17" height="35.17" fill="#c54ff7"/><path d="M 35.17 246.17 A 35.17 35.17 0 0 0 70.34 281.34 L 70.34 246.17L35.17 246.17" fill="#ce6af8"/><rect x="70.33" y="211" width="70.33" height="70.33" fill="#4a57ff"/><path d="M 70.33 211 A 70.33 70.33 0 0 1 140.66 281.33 L 70.33 281.33L70.33 211" fill="#bcc1ff"/><rect x="140.66649999999998" y="210.99974999999998" width="70.33324999999999" height="70.33324999999999" fill="#ffffff"/><rect x="140.67" y="211" width="35.17" height="35.17" fill="#fefbff"/><path d="M 140.67 246.17000000000002 A 35.17 35.17 0 0 1  175.83999999999997 211 L 140.67 246.17000000000002 A 35.17 35.17 0 0 0 175.83999999999997 211" fill="#fefbff"/><rect x="175.83" y="211" width="35.17" height="35.17" fill="#ffffff"/><path d="M 175.83 211 A 35.17 35.17 0 0 1  211 246.17000000000002 L 175.83 211 A 35.17 35.17 0 0 0 211 246.17000000000002" fill="#f3dcfd"/><rect x="140.67" y="246.17" width="35.17" height="35.17" fill="#de9dfa"/><path d="M 140.67 281.34 A 35.17 35.17 0 0 1  175.83999999999997 246.17 L 175.83999999999997 281.34L140.67 281.34" fill="#f7f8ff"/><rect x="175.83" y="246.17" width="35.17" height="35.17" fill="#434fff"/><path d="M 175.83 281.34 A 35.17 35.17 0 0 0 211 246.17 L 175.83 246.17L175.83 281.34" fill="#a2a8ff"/><rect x="211" y="211" width="70.33" height="70.33" fill="#d5d8ff"/><path d="M 211 281.33 A 70.33 70.33 0 0 0 281.33 211 L 211 211L211 281.33" fill="#a4aaff"/><rect x="281.33" y="211" width="70.33" height="70.33" fill="#c349f6"/><path d="M 281.33 281.33 A 70.33 70.33 0 0 1  351.65999999999997 211 L 281.33 281.33 A 70.33 70.33 0 0 0 351.65999999999997 211" fill="#5b66ff"/><rect x="351.66625" y="210.99974999999998" width="70.33324999999999" height="70.33324999999999" fill="#ffffff"/><rect x="351.67" y="211" width="35.17" height="35.17" fill="#bd39f5"/><path d="M 351.67 211 A 35.17 35.17 0 0 1  386.84000000000003 246.17000000000002 L 351.67 211 A 35.17 35.17 0 0 0 386.84000000000003 246.17000000000002" fill="#3f4dff"/><rect x="386.83" y="211" width="35.17" height="35.17" fill="#f4f5ff"/><path d="M 386.83 211 A 35.17 35.17 0 0 0 422 246.17000000000002 L 422 211L386.83 211" fill="#df9ffa"/><rect x="351.67" y="246.17" width="35.17" height="35.17" fill="#fbfbff"/><path d="M 351.67 246.17 A 35.17 35.17 0 0 0 386.84000000000003 281.34 L 386.84000000000003 246.17L351.67 246.17" fill="#e8b9fc"/><rect x="386.83" y="246.17" width="35.17" height="35.17" fill="#f2d8fd"/><path d="M 386.83 246.17 A 35.17 35.17 0 0 0 422 281.34 L 422 246.17L386.83 246.17" fill="#db93fa"/><rect x="421.99949999999995" y="210.99974999999998" width="70.33324999999999" height="70.33324999999999" fill="#ffffff"/><rect x="422" y="211" width="35.17" height="35.17" fill="#bdc2ff"/><path d="M 422 246.17000000000002 A 35.17 35.17 0 0 1  457.17 211 L 422 246.17000000000002 A 35.17 35.17 0 0 0 457.17 211" fill="#3644ff"/><rect x="457.17" y="211" width="35.17" height="35.17" fill="#ca5ef7"/><path d="M 457.17 211 A 35.17 35.17 0 0 0 492.34000000000003 246.17000000000002 L 492.34000000000003 211L457.17 211" fill="#b5baff"/><rect x="422" y="246.17" width="35.17" height="35.17" fill="#8790ff"/><path d="M 422 281.34 A 35.17 35.17 0 0 1  457.17 246.17 L 422 281.34 A 35.17 35.17 0 0 0 457.17 246.17" fill="#da8efa"/><rect x="457.17" y="246.17" width="35.17" height="35.17" fill="#d888f9"/><path d="M 457.17 281.34 A 35.17 35.17 0 0 0 492.34000000000003 246.17 L 457.17 246.17L457.17 281.34" fill="#9da4ff"/><rect x="492.33" y="211" width="70.33" height="70.33" fill="#c44ff7"/><path d="M 492.33 281.33 A 70.33 70.33 0 0 1  562.66 211 L 492.33 281.33 A 70.33 70.33 0 0 0 562.66 211" fill="#c858f7"/><rect x="562.67" y="211" width="70.33" height="70.33" fill="#daddff"/><path d="M 562.67 211 A 70.33 70.33 0 0 0 633 281.33 L 633 211L562.67 211" fill="#e2a9fb"/></g></svg>